<svg xmlns="http://www.w3.org/2000/svg" width="1282" height="1084" viewBox="0 0 1282 1084"><defs><style type="text/css"/></defs><g transform="translate(899.3406042102878 376.1800850320533) scale(1)"><g class="relationship"><g transform="translate(-672.0707494638411 91.23145403994022) rotate(33.80614848111908)" stroke-width="5" stroke="#000000"><path d="M 58.695178092152055 -5.989663490593891 L 95.96898050729243 -9.793341079425122 A 40 40 0 0 1 100.02976931447472 -10 L 248.93881528360384 -10 L 397.84786125273297 -10 A 40 40 0 0 1 401.9086500599153 -9.79334107942512 L 414.4487514875532 -8.51366206436971 L 414.4487514875532 -8.51366206436971"/><polygon points="-24.8621506177483,0 -27.62461179749811,9.20820393249937 0,0 -27.62461179749811,-9.20820393249937" fill="#000000" transform="translate(497.8776305672077 0) rotate(5.826689442008371) translate(-59 0)" stroke="none"/></g><g transform="translate(-459.6574743356841 221.42797589875994) rotate(33.80614848111908) translate(0 -13)"><g transform="translate(0 0)"><g transform="translate(-38.63671875 0)" fill="#ffffff" stroke="#000000" stroke-width="0"><rect x="0" y="0" width="77.2734375" height="26" rx="5" ry="5" stroke="none"/><text xml:space="preserve" x="5" y="17.5" stroke="none" text-anchor="left" font-family="sans-serif" font-size="16" font-weight="normal" fill="#000000">POSTOU</text></g></g></g></g><g class="relationship"><g transform="translate(-672.0707494638411 91.23145403994022) rotate(33.80614848111908)" stroke-width="5" stroke="#000000"><path d="M 58.695178092152055 5.989663490593891 L 95.96898050729243 9.793341079425122 A 40 40 0 0 0 100.02976931447472 10 L 248.93881528360384 10 L 397.84786125273297 10 A 40 40 0 0 0 401.9086500599153 9.79334107942512 L 414.4487514875532 8.51366206436971 L 414.4487514875532 8.51366206436971"/><polygon points="-24.8621506177483,0 -27.62461179749811,9.20820393249937 0,0 -27.62461179749811,-9.20820393249937" fill="#000000" transform="translate(497.8776305672077 0) rotate(-5.826689442008371) translate(-59 0)" stroke="none"/></g><g transform="translate(-470.78517006109394 238.04647125311425) rotate(33.80614848111908) translate(0 -22.6)"><g transform="translate(0 0)"><g transform="translate(-35.07421875 0)" fill="#ffffff" stroke="#000000" stroke-width="0"><rect x="0" y="0" width="70.1484375" height="26" rx="5" ry="5" stroke="none"/><text xml:space="preserve" x="5" y="17.5" stroke="none" text-anchor="left" font-family="sans-serif" font-size="16" font-weight="normal" fill="#000000">CURTIU</text></g></g><g transform="translate(0 26)"><g transform="translate(-55.14453125 0)" fill="white"><rect x="0" y="0" width="110.2890625" height="19.2" rx="0" ry="0" stroke="none"/><g font-family="sans-serif" font-size="16" font-weight="normal" fill="#000000" text-anchor="end"><text xml:space="preserve" x="40.03125" y="14.1" stroke="none">data:</text><text xml:space="preserve" x="44.4765625" y="14.1" stroke="none" text-anchor="start">datetime</text></g></g></g></g></g><g class="relationship"><g transform="translate(-258.371894932937 -185.7800850320533) rotate(0)" stroke-width="5" stroke="#000000"><path d="M 59 0 L 329.8367039131558 0"/><polygon points="-24.8621506177483,0 -27.62461179749811,9.20820393249937 0,0 -27.62461179749811,-9.20820393249937" fill="#000000" transform="translate(354.6988545309041 0) rotate(0)" stroke="none"/></g><g transform="translate(-63.953542976359074 -185.7800850320533) rotate(0) translate(0 -13)"><g transform="translate(0 0)"><g transform="translate(-109.17578125 0)" fill="#ffffff" stroke="#000000" stroke-width="0"><rect x="0" y="0" width="218.3515625" height="26" rx="5" ry="5" stroke="none"/><text xml:space="preserve" x="5" y="17.5" stroke="none" text-anchor="left" font-family="sans-serif" font-size="16" font-weight="normal" fill="#000000">PERTENCE_A_CATEGORIA</text></g></g></g></g><g class="relationship"><g transform="translate(-258.371894932937 368.24299311193397) rotate(90)" stroke-width="5" stroke="#000000"><path d="M 59 0 L 179.7872319233477 0"/><polygon points="-24.8621506177483,0 -27.62461179749811,9.20820393249937 0,0 -27.62461179749811,-9.20820393249937" fill="#000000" transform="translate(204.64938254109597 0) rotate(0)" stroke="none"/></g><g transform="translate(-258.371894932937 487.6366090736078) rotate(270) translate(0 -22.6)"><g transform="translate(0 0)"><g transform="translate(-42.1875 0)" fill="#ffffff" stroke="#000000" stroke-width="0"><rect x="0" y="0" width="84.375" height="26" rx="5" ry="5" stroke="none"/><text xml:space="preserve" x="5" y="17.5" stroke="none" text-anchor="left" font-family="sans-serif" font-size="16" font-weight="normal" fill="#000000">TEM_TAG</text></g></g><g transform="translate(0 26)"><g transform="translate(-48.46484375 0)" fill="white"><rect x="0" y="0" width="96.9296875" height="19.2" rx="0" ry="0" stroke="none"/><g font-family="sans-serif" font-size="16" font-weight="normal" fill="#000000" text-anchor="end"><text xml:space="preserve" x="48.9140625" y="14.1" stroke="none">nome:</text><text xml:space="preserve" x="53.359375" y="14.1" stroke="none" text-anchor="start">string</text></g></g></g></g></g><g class="relationship"><g transform="translate(155.32695959796712 91.23145403994029) rotate(-146.19385151888093)" stroke-width="5" stroke="#000000"><path d="M 58.695178092152055 -5.989663490593891 L 95.96898050729243 -9.793341079425122 A 40 40 0 0 1 100.02976931447472 -10 L 248.93881528360376 -10 L 397.8478612527328 -10 A 40 40 0 0 1 401.90865005991515 -9.79334107942512 L 414.448751487553 -8.51366206436971 L 414.448751487553 -8.51366206436971"/><polygon points="-24.8621506177483,0 -27.62461179749811,9.20820393249937 0,0 -27.62461179749811,-9.20820393249937" fill="#000000" transform="translate(497.8776305672075 0) rotate(5.826689442008371) translate(-59 0)" stroke="none"/></g><g transform="translate(-57.08631553018981 -38.965067818879376) rotate(33.80614848111907) translate(0 -22.6)"><g transform="translate(0 0)"><g transform="translate(-30.77734375 0)" fill="#ffffff" stroke="#000000" stroke-width="0"><rect x="0" y="0" width="61.5546875" height="26" rx="5" ry="5" stroke="none"/><text xml:space="preserve" x="5" y="17.5" stroke="none" text-anchor="left" font-family="sans-serif" font-size="16" font-weight="normal" fill="#000000">CRIOU</text></g></g><g transform="translate(0 26)"><g transform="translate(-55.14453125 0)" fill="white"><rect x="0" y="0" width="110.2890625" height="19.2" rx="0" ry="0" stroke="none"/><g font-family="sans-serif" font-size="16" font-weight="normal" fill="#000000" text-anchor="end"><text xml:space="preserve" x="40.03125" y="14.1" stroke="none">data:</text><text xml:space="preserve" x="44.4765625" y="14.1" stroke="none" text-anchor="start">datetime</text></g></g></g></g></g><g class="relationship"><g transform="translate(155.32695959796712 91.23145403994029) rotate(-146.19385151888093)" stroke-width="5" stroke="#000000"><path d="M 58.695178092152055 5.989663490593891 L 95.96898050729243 9.793341079425122 A 40 40 0 0 0 100.02976931447472 10 L 248.93881528360376 10 L 397.8478612527328 10 A 40 40 0 0 0 401.90865005991515 9.79334107942512 L 414.448751487553 8.51366206436971 L 414.448751487553 8.51366206436971"/><polygon points="-24.8621506177483,0 -27.62461179749811,9.20820393249937 0,0 -27.62461179749811,-9.20820393249937" fill="#000000" transform="translate(497.8776305672075 0) rotate(-5.826689442008371) translate(-59 0)" stroke="none"/></g><g transform="translate(-45.95861980478 -55.583563173233685) rotate(33.80614848111907) translate(0 -32.2)"><g transform="translate(0 0)"><g transform="translate(-56.5625 0)" fill="#ffffff" stroke="#000000" stroke-width="0"><rect x="0" y="0" width="113.125" height="26" rx="5" ry="5" stroke="none"/><text xml:space="preserve" x="5" y="17.5" stroke="none" text-anchor="left" font-family="sans-serif" font-size="16" font-weight="normal" fill="#000000">MEMBRO_DE</text></g></g><g transform="translate(0 26)"><g transform="translate(-61.37109375 0)" fill="white"><rect x="0" y="0" width="122.7421875" height="38.4" rx="0" ry="0" stroke="none"/><g font-family="sans-serif" font-size="16" font-weight="normal" fill="#000000" text-anchor="end"><text xml:space="preserve" x="52.484375" y="14.1" stroke="none">cargo:</text><text xml:space="preserve" x="56.9296875" y="14.1" stroke="none" text-anchor="start">string</text><text xml:space="preserve" x="52.484375" y="33.3" stroke="none" text-anchor="end">desde:</text><text xml:space="preserve" x="56.9296875" y="33.3" stroke="none" text-anchor="start">datetime</text></g></g></g></g></g><g class="relationship"><g transform="translate(155.32695959796712 91.23145403994029) rotate(146.19385151888093)" stroke-width="5" stroke="#000000"><path d="M 58.695178092152055 -5.989663490593891 L 95.96898050729243 -9.793341079425122 A 40 40 0 0 1 100.02976931447472 -10 L 248.93881528360382 -10 L 397.8478612527329 -10 A 40 40 0 0 1 401.90865005991526 -9.79334107942512 L 414.4487514875531 -8.51366206436971 L 414.4487514875531 -8.51366206436971"/><polygon points="-24.8621506177483,0 -27.62461179749811,9.20820393249937 0,0 -27.62461179749811,-9.20820393249937" fill="#000000" transform="translate(497.87763056720763 0) rotate(5.826689442008371) translate(-59 0)" stroke="none"/></g><g transform="translate(-45.958619804780085 238.0464712531143) rotate(326.19385151888093) translate(0 -13)"><g transform="translate(0 0)"><g transform="translate(-38.63671875 0)" fill="#ffffff" stroke="#000000" stroke-width="0"><rect x="0" y="0" width="77.2734375" height="26" rx="5" ry="5" stroke="none"/><text xml:space="preserve" x="5" y="17.5" stroke="none" text-anchor="left" font-family="sans-serif" font-size="16" font-weight="normal" fill="#000000">POSTOU</text></g></g></g></g><g class="relationship"><g transform="translate(155.32695959796712 91.23145403994029) rotate(146.19385151888093)" stroke-width="5" stroke="#000000"><path d="M 58.695178092152055 5.989663490593891 L 95.96898050729243 9.793341079425122 A 40 40 0 0 0 100.02976931447472 10 L 248.93881528360382 10 L 397.8478612527329 10 A 40 40 0 0 0 401.90865005991526 9.79334107942512 L 414.4487514875531 8.51366206436971 L 414.4487514875531 8.51366206436971"/><polygon points="-24.8621506177483,0 -27.62461179749811,9.20820393249937 0,0 -27.62461179749811,-9.20820393249937" fill="#000000" transform="translate(497.87763056720763 0) rotate(-5.826689442008371) translate(-59 0)" stroke="none"/></g><g transform="translate(-57.08631553018989 221.42797589876) rotate(326.19385151888093) translate(0 -22.6)"><g transform="translate(0 0)"><g transform="translate(-35.07421875 0)" fill="#ffffff" stroke="#000000" stroke-width="0"><rect x="0" y="0" width="70.1484375" height="26" rx="5" ry="5" stroke="none"/><text xml:space="preserve" x="5" y="17.5" stroke="none" text-anchor="left" font-family="sans-serif" font-size="16" font-weight="normal" fill="#000000">CURTIU</text></g></g><g transform="translate(0 26)"><g transform="translate(-55.14453125 0)" fill="white"><rect x="0" y="0" width="110.2890625" height="19.2" rx="0" ry="0" stroke="none"/><g font-family="sans-serif" font-size="16" font-weight="normal" fill="#000000" text-anchor="end"><text xml:space="preserve" x="40.03125" y="14.1" stroke="none">data:</text><text xml:space="preserve" x="44.4765625" y="14.1" stroke="none" text-anchor="start">datetime</text></g></g></g></g></g><g class="relationship"><g transform="translate(-672.0707494638411 91.23145403994022) rotate(4.920378613193841e-15)" stroke-width="5" stroke="#000000"><path d="M 58.695178092152055 -5.989663490593891 L 95.96898050729243 -9.793341079425122 A 40 40 0 0 1 100.02976931447472 -10 L 413.6988545309041 -10 L 727.3679397473334 -10 A 40 40 0 0 1 731.4287285545157 -9.793341079425124 L 743.9688299821537 -8.51366206436971 L 743.9688299821537 -8.51366206436971"/><polygon points="-24.8621506177483,0 -27.62461179749811,9.20820393249937 0,0 -27.62461179749811,-9.20820393249937" fill="#000000" transform="translate(827.3977090618082 0) rotate(5.826689442008371) translate(-59 0)" stroke="none"/></g><g transform="translate(-258.37189493293704 81.23145403994025) rotate(4.920378613193841e-15) translate(0 -22.6)"><g transform="translate(0 0)"><g transform="translate(-47.23046875 0)" fill="#ffffff" stroke="#000000" stroke-width="0"><rect x="0" y="0" width="94.4609375" height="26" rx="5" ry="5" stroke="none"/><text xml:space="preserve" x="5" y="17.5" stroke="none" text-anchor="left" font-family="sans-serif" font-size="16" font-weight="normal" fill="#000000">AMIGO_DE</text></g></g><g transform="translate(0 26)"><g transform="translate(-61.37109375 0)" fill="white"><rect x="0" y="0" width="122.7421875" height="19.2" rx="0" ry="0" stroke="none"/><g font-family="sans-serif" font-size="16" font-weight="normal" fill="#000000" text-anchor="end"><text xml:space="preserve" x="52.484375" y="14.1" stroke="none">desde:</text><text xml:space="preserve" x="56.9296875" y="14.1" stroke="none" text-anchor="start">datetime</text></g></g></g></g></g><g class="relationship"><g transform="translate(-672.0707494638411 91.23145403994022) rotate(4.920378613193841e-15)" stroke-width="5" stroke="#000000"><path d="M 58.695178092152055 5.989663490593891 L 95.96898050729243 9.793341079425122 A 40 40 0 0 0 100.02976931447472 10 L 413.6988545309041 10 L 727.3679397473334 10 A 40 40 0 0 0 731.4287285545157 9.793341079425124 L 743.9688299821537 8.51366206436971 L 743.9688299821537 8.51366206436971"/><polygon points="-24.8621506177483,0 -27.62461179749811,9.20820393249937 0,0 -27.62461179749811,-9.20820393249937" fill="#000000" transform="translate(827.3977090618082 0) rotate(-5.826689442008371) translate(-59 0)" stroke="none"/></g><g transform="translate(-258.37189493293704 101.23145403994025) rotate(4.920378613193841e-15) translate(0 -22.6)"><g transform="translate(0 0)"><g transform="translate(-33.0078125 0)" fill="#ffffff" stroke="#000000" stroke-width="0"><rect x="0" y="0" width="66.015625" height="26" rx="5" ry="5" stroke="none"/><text xml:space="preserve" x="5" y="17.5" stroke="none" text-anchor="left" font-family="sans-serif" font-size="16" font-weight="normal" fill="#000000">SEGUE</text></g></g><g transform="translate(0 26)"><g transform="translate(-8.890625 0)" fill="white"><rect x="0" y="0" width="17.78125" height="19.2" rx="0" ry="0" stroke="none"/><g font-family="sans-serif" font-size="16" font-weight="normal" fill="#000000" text-anchor="end"><text xml:space="preserve" x="8.890625" y="14.1" stroke="none">:</text><text xml:space="preserve" x="13.3359375" y="14.1" stroke="none" text-anchor="start"></text></g></g></g></g></g><g class="relationship"><g transform="translate(-672.0707494638411 91.23145403994022) rotate(-33.80614848111905)" stroke-width="5" stroke="#000000"><path d="M 58.695178092152055 -5.989663490593891 L 95.96898050729243 -9.793341079425122 A 40 40 0 0 1 100.02976931447472 -10 L 248.9388152836038 -10 L 397.84786125273286 -10 A 40 40 0 0 1 401.9086500599152 -9.79334107942512 L 414.44875148755307 -8.51366206436971 L 414.44875148755307 -8.51366206436971"/><polygon points="-24.8621506177483,0 -27.62461179749811,9.20820393249937 0,0 -27.62461179749811,-9.20820393249937" fill="#000000" transform="translate(497.8776305672076 0) rotate(5.826689442008371) translate(-59 0)" stroke="none"/></g><g transform="translate(-470.78517006109394 -55.5835631732337) rotate(-33.80614848111905) translate(0 -32.2)"><g transform="translate(0 0)"><g transform="translate(-56.5625 0)" fill="#ffffff" stroke="#000000" stroke-width="0"><rect x="0" y="0" width="113.125" height="26" rx="5" ry="5" stroke="none"/><text xml:space="preserve" x="5" y="17.5" stroke="none" text-anchor="left" font-family="sans-serif" font-size="16" font-weight="normal" fill="#000000">MEMBRO_DE</text></g></g><g transform="translate(0 26)"><g transform="translate(-61.37109375 0)" fill="white"><rect x="0" y="0" width="122.7421875" height="38.4" rx="0" ry="0" stroke="none"/><g font-family="sans-serif" font-size="16" font-weight="normal" fill="#000000" text-anchor="end"><text xml:space="preserve" x="52.484375" y="14.1" stroke="none">cargo:</text><text xml:space="preserve" x="56.9296875" y="14.1" stroke="none" text-anchor="start">string</text><text xml:space="preserve" x="52.484375" y="33.3" stroke="none" text-anchor="end">desde:</text><text xml:space="preserve" x="56.9296875" y="33.3" stroke="none" text-anchor="start">datetime</text></g></g></g></g></g><g class="relationship"><g transform="translate(-672.0707494638411 91.23145403994022) rotate(-33.80614848111905)" stroke-width="5" stroke="#000000"><path d="M 58.695178092152055 5.989663490593891 L 95.96898050729243 9.793341079425122 A 40 40 0 0 0 100.02976931447472 10 L 248.9388152836038 10 L 397.84786125273286 10 A 40 40 0 0 0 401.9086500599152 9.79334107942512 L 414.44875148755307 8.51366206436971 L 414.44875148755307 8.51366206436971"/><polygon points="-24.8621506177483,0 -27.62461179749811,9.20820393249937 0,0 -27.62461179749811,-9.20820393249937" fill="#000000" transform="translate(497.8776305672076 0) rotate(-5.826689442008371) translate(-59 0)" stroke="none"/></g><g transform="translate(-459.6574743356841 -38.96506781887939) rotate(-33.80614848111905) translate(0 -22.6)"><g transform="translate(0 0)"><g transform="translate(-30.77734375 0)" fill="#ffffff" stroke="#000000" stroke-width="0"><rect x="0" y="0" width="61.5546875" height="26" rx="5" ry="5" stroke="none"/><text xml:space="preserve" x="5" y="17.5" stroke="none" text-anchor="left" font-family="sans-serif" font-size="16" font-weight="normal" fill="#000000">CRIOU</text></g></g><g transform="translate(0 26)"><g transform="translate(-55.14453125 0)" fill="white"><rect x="0" y="0" width="110.2890625" height="19.2" rx="0" ry="0" stroke="none"/><g font-family="sans-serif" font-size="16" font-weight="normal" fill="#000000" text-anchor="end"><text xml:space="preserve" x="40.03125" y="14.1" stroke="none">data:</text><text xml:space="preserve" x="44.4765625" y="14.1" stroke="none" text-anchor="start">datetime</text></g></g></g></g></g><g class="relationship"><g transform="translate(-258.371894932937 368.24299311193397) rotate(-90)" stroke-width="5" stroke="#000000"><path d="M 59 0 L 470.160927526239 0"/><polygon points="-24.8621506177483,0 -27.62461179749811,9.20820393249937 0,0 -27.62461179749811,-9.20820393249937" fill="#000000" transform="translate(495.0230781439873 0) rotate(0)" stroke="none"/></g><g transform="translate(-258.371894932937 103.66252934881447) rotate(90) translate(0 -22.6)"><g transform="translate(0 0)"><g transform="translate(-67.68359375 0)" fill="#ffffff" stroke="#000000" stroke-width="0"><rect x="0" y="0" width="135.3671875" height="26" rx="5" ry="5" stroke="none"/><text xml:space="preserve" x="5" y="17.5" stroke="none" text-anchor="left" font-family="sans-serif" font-size="16" font-weight="normal" fill="#000000">PUBLICADO_EM</text></g></g><g transform="translate(0 26)"><g transform="translate(-55.14453125 0)" fill="white"><rect x="0" y="0" width="110.2890625" height="19.2" rx="0" ry="0" stroke="none"/><g font-family="sans-serif" font-size="16" font-weight="normal" fill="#000000" text-anchor="end"><text xml:space="preserve" x="40.03125" y="14.1" stroke="none">data:</text><text xml:space="preserve" x="44.4765625" y="14.1" stroke="none" text-anchor="start">datetime</text></g></g></g></g></g><g class="relationship"><g transform="translate(-672.0707494638411 368.24299311193397) rotate(0)" stroke-width="5" stroke="#000000"><path d="M 59 0 L 329.8367039131559 0"/><polygon points="-24.8621506177483,0 -27.62461179749811,9.20820393249937 0,0 -27.62461179749811,-9.20820393249937" fill="#000000" transform="translate(354.69885453090416 0) rotate(0)" stroke="none"/></g><g transform="translate(-477.65239750726323 368.24299311193397) rotate(0) translate(0 -13)"><g transform="translate(0 0)"><g transform="translate(-43.23046875 0)" fill="#ffffff" stroke="#000000" stroke-width="0"><rect x="0" y="0" width="86.4609375" height="26" rx="5" ry="5" stroke="none"/><text xml:space="preserve" x="5" y="17.5" stroke="none" text-anchor="left" font-family="sans-serif" font-size="16" font-weight="normal" fill="#000000">EM_POST</text></g></g></g></g><g class="relationship"><g transform="translate(-672.0707494638411 91.23145403994022) rotate(90)" stroke-width="5" stroke="#000000"><path d="M 58.695178092152055 -5.989663490593891 L 95.96898050729243 -9.793341079425122 A 40 40 0 0 1 100.02976931447472 -10 L 138.50576953599688 -10 L 176.98176975751906 -10 A 40 40 0 0 1 181.04255856470135 -9.79334107942512 L 193.58265999233925 -8.51366206436971 L 193.58265999233925 -8.51366206436971"/><polygon points="-24.8621506177483,0 -27.62461179749811,9.20820393249937 0,0 -27.62461179749811,-9.20820393249937" fill="#000000" transform="translate(277.01153907199375 0) rotate(5.826689442008371) translate(-59 0)" stroke="none"/></g><g transform="translate(-662.0707494638411 229.7372235759371) rotate(270) translate(0 -13)"><g transform="translate(0 0)"><g transform="translate(-51.51953125 0)" fill="#ffffff" stroke="#000000" stroke-width="0"><rect x="0" y="0" width="103.0390625" height="26" rx="5" ry="5" stroke="none"/><text xml:space="preserve" x="5" y="17.5" stroke="none" text-anchor="left" font-family="sans-serif" font-size="16" font-weight="normal" fill="#000000">COMENTOU</text></g></g></g></g><g class="relationship"><g transform="translate(-672.0707494638411 91.23145403994022) rotate(90)" stroke-width="5" stroke="#000000"><path d="M 58.695178092152055 5.989663490593891 L 95.96898050729243 9.793341079425122 A 40 40 0 0 0 100.02976931447472 10 L 138.50576953599688 10 L 176.98176975751906 10 A 40 40 0 0 0 181.04255856470135 9.79334107942512 L 193.58265999233925 8.51366206436971 L 193.58265999233925 8.51366206436971"/><polygon points="-24.8621506177483,0 -27.62461179749811,9.20820393249937 0,0 -27.62461179749811,-9.20820393249937" fill="#000000" transform="translate(277.01153907199375 0) rotate(-5.826689442008371) translate(-59 0)" stroke="none"/></g><g transform="translate(-682.0707494638411 229.7372235759371) rotate(270) translate(0 -22.6)"><g transform="translate(0 0)"><g transform="translate(-35.07421875 0)" fill="#ffffff" stroke="#000000" stroke-width="0"><rect x="0" y="0" width="70.1484375" height="26" rx="5" ry="5" stroke="none"/><text xml:space="preserve" x="5" y="17.5" stroke="none" text-anchor="left" font-family="sans-serif" font-size="16" font-weight="normal" fill="#000000">CURTIU</text></g></g><g transform="translate(0 26)"><g transform="translate(-55.14453125 0)" fill="white"><rect x="0" y="0" width="110.2890625" height="19.2" rx="0" ry="0" stroke="none"/><g font-family="sans-serif" font-size="16" font-weight="normal" fill="#000000" text-anchor="end"><text xml:space="preserve" x="40.03125" y="14.1" stroke="none">data:</text><text xml:space="preserve" x="44.4765625" y="14.1" stroke="none" text-anchor="start">datetime</text></g></g></g></g></g><g class="relationship"><g transform="translate(155.32695959796712 91.23145403994029) rotate(90)" stroke-width="5" stroke="#000000"><path d="M 58.695178092152055 -5.989663490593891 L 95.96898050729243 -9.793341079425122 A 40 40 0 0 1 100.02976931447472 -10 L 138.50576953599676 -10 L 176.98176975751883 -10 A 40 40 0 0 1 181.04255856470112 -9.79334107942512 L 193.58265999233902 -8.51366206436971 L 193.58265999233902 -8.51366206436971"/><polygon points="-24.8621506177483,0 -27.62461179749811,9.20820393249937 0,0 -27.62461179749811,-9.20820393249937" fill="#000000" transform="translate(277.0115390719935 0) rotate(5.826689442008371) translate(-59 0)" stroke="none"/></g><g transform="translate(165.32695959796712 229.73722357593704) rotate(270) translate(0 -13)"><g transform="translate(0 0)"><g transform="translate(-51.51953125 0)" fill="#ffffff" stroke="#000000" stroke-width="0"><rect x="0" y="0" width="103.0390625" height="26" rx="5" ry="5" stroke="none"/><text xml:space="preserve" x="5" y="17.5" stroke="none" text-anchor="left" font-family="sans-serif" font-size="16" font-weight="normal" fill="#000000">COMENTOU</text></g></g></g></g><g class="relationship"><g transform="translate(155.32695959796712 91.23145403994029) rotate(90)" stroke-width="5" stroke="#000000"><path d="M 58.695178092152055 5.989663490593891 L 95.96898050729243 9.793341079425122 A 40 40 0 0 0 100.02976931447472 10 L 138.50576953599676 10 L 176.98176975751883 10 A 40 40 0 0 0 181.04255856470112 9.79334107942512 L 193.58265999233902 8.51366206436971 L 193.58265999233902 8.51366206436971"/><polygon points="-24.8621506177483,0 -27.62461179749811,9.20820393249937 0,0 -27.62461179749811,-9.20820393249937" fill="#000000" transform="translate(277.0115390719935 0) rotate(-5.826689442008371) translate(-59 0)" stroke="none"/></g><g transform="translate(145.32695959796712 229.73722357593704) rotate(270) translate(0 -22.6)"><g transform="translate(0 0)"><g transform="translate(-35.07421875 0)" fill="#ffffff" stroke="#000000" stroke-width="0"><rect x="0" y="0" width="70.1484375" height="26" rx="5" ry="5" stroke="none"/><text xml:space="preserve" x="5" y="17.5" stroke="none" text-anchor="left" font-family="sans-serif" font-size="16" font-weight="normal" fill="#000000">CURTIU</text></g></g><g transform="translate(0 26)"><g transform="translate(-55.14453125 0)" fill="white"><rect x="0" y="0" width="110.2890625" height="19.2" rx="0" ry="0" stroke="none"/><g font-family="sans-serif" font-size="16" font-weight="normal" fill="#000000" text-anchor="end"><text xml:space="preserve" x="40.03125" y="14.1" stroke="none">data:</text><text xml:space="preserve" x="44.4765625" y="14.1" stroke="none" text-anchor="start">datetime</text></g></g></g></g></g><g class="relationship"><g transform="translate(155.32695959796712 368.2429931119338) rotate(179.99999999999997)" stroke-width="5" stroke="#000000"><path d="M 59 0 L 329.8367039131558 0"/><polygon points="-24.8621506177483,0 -27.62461179749811,9.20820393249937 0,0 -27.62461179749811,-9.20820393249937" fill="#000000" transform="translate(354.6988545309041 0) rotate(0)" stroke="none"/></g><g transform="translate(-39.09139235861079 368.2429931119339) rotate(360) translate(0 -13)"><g transform="translate(0 0)"><g transform="translate(-43.23046875 0)" fill="#ffffff" stroke="#000000" stroke-width="0"><rect x="0" y="0" width="86.4609375" height="26" rx="5" ry="5" stroke="none"/><text xml:space="preserve" x="5" y="17.5" stroke="none" text-anchor="left" font-family="sans-serif" font-size="16" font-weight="normal" fill="#000000">EM_POST</text></g></g></g></g><g class="node"><g fill="#fda1ff" stroke="#000000" stroke-width="4"><circle cx="-672.0707494638411" cy="91.23145403994022" r="52"/></g><g transform="translate(-672.0707494638411 91.23145403994022)"><g transform="scale(0.43098299437885235) translate(0 -59)"><g transform="translate(0 0)"><g fill="#000000" font-family="sans-serif" font-size="50" font-weight="normal" text-anchor="middle"><text xml:space="preserve" x="0" y="43" stroke="none">Usuario</text></g></g><g transform="translate(0 64)"><g transform="translate(-38.123046875 0)"><g fill="#ffffff" stroke="#000000" stroke-width="4"><rect x="0" y="0" width="76.24609375" height="54" rx="27" ry="27"/><text xml:space="preserve" x="27" y="37.5" stroke="none" font-family="sans-serif" font-size="40" font-weight="normal" fill="#000000">u</text></g></g></g></g><g transform="translate(-39.597979746446654 -154.79797974644666)"><g transform="translate(0 0)"><g transform="translate(-187.671875 0)" fill="white"><rect x="0" y="0" width="187.671875" height="115.19999999999999" rx="0" ry="0" stroke="none"/><g font-family="sans-serif" font-size="16" font-weight="normal" fill="#000000" text-anchor="end"><text xml:space="preserve" x="129.859375" y="14.1" stroke="none">id:</text><text xml:space="preserve" x="134.3046875" y="14.1" stroke="none" text-anchor="start">integer</text><text xml:space="preserve" x="129.859375" y="33.3" stroke="none" text-anchor="end">nome:</text><text xml:space="preserve" x="134.3046875" y="33.3" stroke="none" text-anchor="start">string</text><text xml:space="preserve" x="129.859375" y="52.5" stroke="none" text-anchor="end">username:</text><text xml:space="preserve" x="134.3046875" y="52.5" stroke="none" text-anchor="start">string</text><text xml:space="preserve" x="129.859375" y="71.7" stroke="none" text-anchor="end">idade:</text><text xml:space="preserve" x="134.3046875" y="71.7" stroke="none" text-anchor="start">integer</text><text xml:space="preserve" x="129.859375" y="90.89999999999999" stroke="none" text-anchor="end">cidade:</text><text xml:space="preserve" x="134.3046875" y="90.89999999999999" stroke="none" text-anchor="start">string</text><text xml:space="preserve" x="129.859375" y="110.1" stroke="none" text-anchor="end">seguidoresCount:</text><text xml:space="preserve" x="134.3046875" y="110.1" stroke="none" text-anchor="start">integer</text></g></g></g></g></g></g><g class="node"><g fill="#73d8ff" stroke="#000000" stroke-width="4"><circle cx="-258.371894932937" cy="-185.7800850320533" r="52"/></g><g transform="translate(-258.371894932937 -185.7800850320533)"><g transform="scale(0.4936773242550654) translate(0 -59)"><g transform="translate(0 0)"><g fill="#000000" font-family="sans-serif" font-size="50" font-weight="normal" text-anchor="middle"><text xml:space="preserve" x="0" y="43" stroke="none">Grupo</text></g></g><g transform="translate(0 64)"><g transform="translate(-38.123046875 0)"><g fill="#ffffff" stroke="#000000" stroke-width="4"><rect x="0" y="0" width="76.24609375" height="54" rx="27" ry="27"/><text xml:space="preserve" x="27" y="37.5" stroke="none" font-family="sans-serif" font-size="40" font-weight="normal" fill="#000000">g</text></g></g></g></g><g transform="translate(3.429011037612589e-15 -190.4)"><g transform="translate(0 0)"><g transform="translate(-94.26171875 0)" fill="white"><rect x="0" y="0" width="188.5234375" height="134.4" rx="0" ry="0" stroke="none"/><g font-family="sans-serif" font-size="16" font-weight="normal" fill="#000000" text-anchor="end"><text xml:space="preserve" x="118.265625" y="14.1" stroke="none">id:</text><text xml:space="preserve" x="122.7109375" y="14.1" stroke="none" text-anchor="start">string</text><text xml:space="preserve" x="118.265625" y="33.3" stroke="none" text-anchor="end">nome:</text><text xml:space="preserve" x="122.7109375" y="33.3" stroke="none" text-anchor="start">string</text><text xml:space="preserve" x="118.265625" y="52.5" stroke="none" text-anchor="end">descricao:</text><text xml:space="preserve" x="122.7109375" y="52.5" stroke="none" text-anchor="start">string</text><text xml:space="preserve" x="118.265625" y="71.7" stroke="none" text-anchor="end">privado:</text><text xml:space="preserve" x="122.7109375" y="71.7" stroke="none" text-anchor="start">boolean</text><text xml:space="preserve" x="118.265625" y="90.89999999999999" stroke="none" text-anchor="end">dataCriacao:</text><text xml:space="preserve" x="122.7109375" y="90.89999999999999" stroke="none" text-anchor="start">datetime</text><text xml:space="preserve" x="118.265625" y="110.1" stroke="none" text-anchor="end">caption:</text><text xml:space="preserve" x="122.7109375" y="110.1" stroke="none" text-anchor="start">string</text><text xml:space="preserve" x="118.265625" y="129.3" stroke="none" text-anchor="end">membrosCount:</text><text xml:space="preserve" x="122.7109375" y="129.3" stroke="none" text-anchor="start">integer</text></g></g></g></g></g></g><g class="node"><g fill="#aea1ff" stroke="#000000" stroke-width="4"><circle cx="-258.371894932937" cy="368.24299311193397" r="52"/></g><g transform="translate(-258.371894932937 368.24299311193397)"><g transform="scale(0.5817507755061435) translate(0 -59)"><g transform="translate(0 0)"><g fill="#000000" font-family="sans-serif" font-size="50" font-weight="normal" text-anchor="middle"><text xml:space="preserve" x="0" y="43" stroke="none">Post</text></g></g><g transform="translate(0 64)"><g transform="translate(-38.123046875 0)"><g fill="#ffffff" stroke="#000000" stroke-width="4"><rect x="0" y="0" width="76.24609375" height="54" rx="27" ry="27"/><text xml:space="preserve" x="27" y="37.5" stroke="none" font-family="sans-serif" font-size="40" font-weight="normal" fill="#000000">p</text></g></g></g></g><g transform="translate(39.59797974644666 39.597979746446654)"><g transform="translate(0 0)"><g transform="translate(0 0)" fill="white"><rect x="0" y="0" width="144.984375" height="76.8" rx="0" ry="0" stroke="none"/><g font-family="sans-serif" font-size="16" font-weight="normal" fill="#000000" text-anchor="end"><text xml:space="preserve" x="74.7265625" y="14.1" stroke="none">id:</text><text xml:space="preserve" x="79.171875" y="14.1" stroke="none" text-anchor="start">integer</text><text xml:space="preserve" x="74.7265625" y="33.3" stroke="none" text-anchor="end">conteudo:</text><text xml:space="preserve" x="79.171875" y="33.3" stroke="none" text-anchor="start">string</text><text xml:space="preserve" x="74.7265625" y="52.5" stroke="none" text-anchor="end">curtidas:</text><text xml:space="preserve" x="79.171875" y="52.5" stroke="none" text-anchor="start">integer</text><text xml:space="preserve" x="74.7265625" y="71.7" stroke="none" text-anchor="end">data:</text><text xml:space="preserve" x="79.171875" y="71.7" stroke="none" text-anchor="start">datetime</text></g></g></g></g></g></g><g class="node"><g fill="#a4dd00" stroke="#000000" stroke-width="4"><circle cx="155.32695959796712" cy="-185.7800850320533" r="52"/></g><g transform="translate(155.32695959796712 -185.7800850320533)"><g transform="scale(0.364623915454413) translate(0 -59)"><g transform="translate(0 0)"><g fill="#000000" font-family="sans-serif" font-size="50" font-weight="normal" text-anchor="middle"><text xml:space="preserve" x="0" y="43" stroke="none">Categoria</text></g></g><g transform="translate(0 64)"><g transform="translate(-37 0)"><g fill="#ffffff" stroke="#000000" stroke-width="4"><rect x="0" y="0" width="74" height="54" rx="27" ry="27"/><text xml:space="preserve" x="27" y="37.5" stroke="none" font-family="sans-serif" font-size="40" font-weight="normal" fill="#000000">c</text></g></g></g></g><g transform="translate(56 -48)"><g transform="translate(0 0)"><g transform="translate(0 0)" fill="white"><rect x="0" y="0" width="143.1640625" height="96" rx="0" ry="0" stroke="none"/><g font-family="sans-serif" font-size="16" font-weight="normal" fill="#000000" text-anchor="end"><text xml:space="preserve" x="77.3671875" y="14.1" stroke="none">nome:</text><text xml:space="preserve" x="81.8125" y="14.1" stroke="none" text-anchor="start">string</text><text xml:space="preserve" x="77.3671875" y="33.3" stroke="none" text-anchor="end">descricao:</text><text xml:space="preserve" x="81.8125" y="33.3" stroke="none" text-anchor="start">string</text><text xml:space="preserve" x="77.3671875" y="52.5" stroke="none" text-anchor="end">icone:</text><text xml:space="preserve" x="81.8125" y="52.5" stroke="none" text-anchor="start">imagem</text><text xml:space="preserve" x="77.3671875" y="71.7" stroke="none" text-anchor="end">caption:</text><text xml:space="preserve" x="81.8125" y="71.7" stroke="none" text-anchor="start">imagem</text><text xml:space="preserve" x="77.3671875" y="90.89999999999999" stroke="none" text-anchor="end">cor:</text><text xml:space="preserve" x="81.8125" y="90.89999999999999" stroke="none" text-anchor="start">string</text></g></g></g></g></g></g><g class="node"><g fill="#68ccca" stroke="#000000" stroke-width="4"><circle cx="-258.371894932937" cy="631.89237565303" r="52"/></g><g transform="translate(-258.371894932937 631.89237565303)"><g transform="scale(0.4082239846794878) translate(0 -59)"><g transform="translate(0 0)"><g fill="#000000" font-family="sans-serif" font-size="50" font-weight="normal" text-anchor="middle"><text xml:space="preserve" x="0" y="43" stroke="none">Hashtag</text></g></g><g transform="translate(0 64)"><g transform="translate(-38.123046875 0)"><g fill="#ffffff" stroke="#000000" stroke-width="4"><rect x="0" y="0" width="76.24609375" height="54" rx="27" ry="27"/><text xml:space="preserve" x="27" y="37.5" stroke="none" font-family="sans-serif" font-size="40" font-weight="normal" fill="#000000">h</text></g></g></g></g><g transform="translate(3.429011037612589e-15 56)"><g transform="translate(0 0)"><g transform="translate(-48.46484375 0)" fill="white"><rect x="0" y="0" width="96.9296875" height="19.2" rx="0" ry="0" stroke="none"/><g font-family="sans-serif" font-size="16" font-weight="normal" fill="#000000" text-anchor="end"><text xml:space="preserve" x="48.9140625" y="14.1" stroke="none">nome:</text><text xml:space="preserve" x="53.359375" y="14.1" stroke="none" text-anchor="start">string</text></g></g></g></g></g></g><g class="node"><g fill="#fda1ff" stroke="#000000" stroke-width="4"><circle cx="155.32695959796712" cy="91.23145403994029" r="52"/></g><g transform="translate(155.32695959796712 91.23145403994029)"><g transform="scale(0.43098299437885235) translate(0 -59)"><g transform="translate(0 0)"><g fill="#000000" font-family="sans-serif" font-size="50" font-weight="normal" text-anchor="middle"><text xml:space="preserve" x="0" y="43" stroke="none">Usuario</text></g></g><g transform="translate(0 64)"><g transform="translate(-38.123046875 0)"><g fill="#ffffff" stroke="#000000" stroke-width="4"><rect x="0" y="0" width="76.24609375" height="54" rx="27" ry="27"/><text xml:space="preserve" x="27" y="37.5" stroke="none" font-family="sans-serif" font-size="40" font-weight="normal" fill="#000000">u</text></g></g></g></g><g transform="translate(39.59797974644666 -154.79797974644663)"><g transform="translate(0 0)"><g transform="translate(0 0)" fill="white"><rect x="0" y="0" width="187.671875" height="115.19999999999999" rx="0" ry="0" stroke="none"/><g font-family="sans-serif" font-size="16" font-weight="normal" fill="#000000" text-anchor="end"><text xml:space="preserve" x="129.859375" y="14.1" stroke="none">id:</text><text xml:space="preserve" x="134.3046875" y="14.1" stroke="none" text-anchor="start">integer</text><text xml:space="preserve" x="129.859375" y="33.3" stroke="none" text-anchor="end">nome:</text><text xml:space="preserve" x="134.3046875" y="33.3" stroke="none" text-anchor="start">string</text><text xml:space="preserve" x="129.859375" y="52.5" stroke="none" text-anchor="end">username:</text><text xml:space="preserve" x="134.3046875" y="52.5" stroke="none" text-anchor="start">string</text><text xml:space="preserve" x="129.859375" y="71.7" stroke="none" text-anchor="end">idade:</text><text xml:space="preserve" x="134.3046875" y="71.7" stroke="none" text-anchor="start">integer</text><text xml:space="preserve" x="129.859375" y="90.89999999999999" stroke="none" text-anchor="end">cidade:</text><text xml:space="preserve" x="134.3046875" y="90.89999999999999" stroke="none" text-anchor="start">string</text><text xml:space="preserve" x="129.859375" y="110.1" stroke="none" text-anchor="end">seguidoresCount:</text><text xml:space="preserve" x="134.3046875" y="110.1" stroke="none" text-anchor="start">integer</text></g></g></g></g></g></g><g class="node"><g fill="#fe9200" stroke="#000000" stroke-width="4"><circle cx="-672.0707494638411" cy="368.24299311193397" r="52"/></g><g transform="translate(-672.0707494638411 368.24299311193397)"><g transform="scale(0.316777737222147) translate(0 -59)"><g transform="translate(0 0)"><g fill="#000000" font-family="sans-serif" font-size="50" font-weight="normal" text-anchor="middle"><text xml:space="preserve" x="0" y="43" stroke="none">Comentario</text></g></g><g transform="translate(0 64)"><g transform="translate(-64.783203125 0)"><g fill="#ffffff" stroke="#000000" stroke-width="4"><rect x="0" y="0" width="129.56640625" height="54" rx="27" ry="27"/><text xml:space="preserve" x="27" y="37.5" stroke="none" font-family="sans-serif" font-size="40" font-weight="normal" fill="#000000">com</text></g></g></g></g><g transform="translate(-39.597979746446654 39.59797974644666)"><g transform="translate(0 0)"><g transform="translate(-144.984375 0)" fill="white"><rect x="0" y="0" width="144.984375" height="76.8" rx="0" ry="0" stroke="none"/><g font-family="sans-serif" font-size="16" font-weight="normal" fill="#000000" text-anchor="end"><text xml:space="preserve" x="74.7265625" y="14.1" stroke="none">id:</text><text xml:space="preserve" x="79.171875" y="14.1" stroke="none" text-anchor="start">integer</text><text xml:space="preserve" x="74.7265625" y="33.3" stroke="none" text-anchor="end">conteudo:</text><text xml:space="preserve" x="79.171875" y="33.3" stroke="none" text-anchor="start">string</text><text xml:space="preserve" x="74.7265625" y="52.5" stroke="none" text-anchor="end">curtidas:</text><text xml:space="preserve" x="79.171875" y="52.5" stroke="none" text-anchor="start">integer</text><text xml:space="preserve" x="74.7265625" y="71.7" stroke="none" text-anchor="end">data:</text><text xml:space="preserve" x="79.171875" y="71.7" stroke="none" text-anchor="start">datetime</text></g></g></g></g></g></g><g class="node"><g fill="#fe9200" stroke="#000000" stroke-width="4"><circle cx="155.32695959796712" cy="368.2429931119338" r="52"/></g><g transform="translate(155.32695959796712 368.2429931119338)"><g transform="scale(0.316777737222147) translate(0 -59)"><g transform="translate(0 0)"><g fill="#000000" font-family="sans-serif" font-size="50" font-weight="normal" text-anchor="middle"><text xml:space="preserve" x="0" y="43" stroke="none">Comentario</text></g></g><g transform="translate(0 64)"><g transform="translate(-64.783203125 0)"><g fill="#ffffff" stroke="#000000" stroke-width="4"><rect x="0" y="0" width="129.56640625" height="54" rx="27" ry="27"/><text xml:space="preserve" x="27" y="37.5" stroke="none" font-family="sans-serif" font-size="40" font-weight="normal" fill="#000000">com</text></g></g></g></g><g transform="translate(39.59797974644666 39.597979746446654)"><g transform="translate(0 0)"><g transform="translate(0 0)" fill="white"><rect x="0" y="0" width="144.984375" height="76.8" rx="0" ry="0" stroke="none"/><g font-family="sans-serif" font-size="16" font-weight="normal" fill="#000000" text-anchor="end"><text xml:space="preserve" x="74.7265625" y="14.1" stroke="none">id:</text><text xml:space="preserve" x="79.171875" y="14.1" stroke="none" text-anchor="start">integer</text><text xml:space="preserve" x="74.7265625" y="33.3" stroke="none" text-anchor="end">conteudo:</text><text xml:space="preserve" x="79.171875" y="33.3" stroke="none" text-anchor="start">string</text><text xml:space="preserve" x="74.7265625" y="52.5" stroke="none" text-anchor="end">curtidas:</text><text xml:space="preserve" x="79.171875" y="52.5" stroke="none" text-anchor="start">integer</text><text xml:space="preserve" x="74.7265625" y="71.7" stroke="none" text-anchor="end">data:</text><text xml:space="preserve" x="79.171875" y="71.7" stroke="none" text-anchor="start">datetime</text></g></g></g></g></g></g></g></svg>